<?xml version="1.0" standalone="no"?>
<!DOCTYPE svg PUBLIC "-//W3C//DTD SVG 20010904//EN"
 "http://www.w3.org/TR/2001/REC-SVG-20010904/DTD/svg10.dtd">
<svg version="1.0" xmlns="http://www.w3.org/2000/svg"
 width="225.000000pt" height="225.000000pt" viewBox="0 0 225.000000 225.000000"
 preserveAspectRatio="xMidYMid meet">

<g transform="translate(0.000000,225.000000) scale(0.100000,-0.100000)"
fill="#000000" stroke="none">
<path d="M1100 2020 c-8 -5 -10 -10 -5 -10 6 0 17 5 25 10 8 5 11 10 5 10 -5
0 -17 -5 -25 -10z"/>
<path d="M1050 2000 c-8 -5 -10 -10 -5 -10 6 0 17 5 25 10 8 5 11 10 5 10 -5
0 -17 -5 -25 -10z"/>
<path d="M1180 2000 c8 -5 20 -10 25 -10 6 0 3 5 -5 10 -8 5 -19 10 -25 10 -5
0 -3 -5 5 -10z"/>
<path d="M1087 1983 c-9 -17 5 -82 17 -77 7 3 10 18 8 39 -4 34 -16 53 -25 38z"/>
<path d="M1130 1980 c0 -5 5 -10 11 -10 7 0 9 -12 5 -35 -5 -22 -3 -35 4 -35
6 0 13 14 17 31 4 20 10 28 19 25 14 -6 20 10 7 17 -21 12 -63 16 -63 7z"/>
<path d="M974 1964 c-18 -14 -18 -14 6 -3 31 14 36 19 24 19 -6 0 -19 -7 -30
-16z"/>
<path d="M1241 1976 c10 -9 69 -36 69 -32 0 6 -55 36 -66 36 -4 0 -5 -2 -3 -4z"/>
<path d="M1026 1957 c-14 -10 -17 -19 -11 -33 5 -10 9 -22 9 -26 4 -26 56 -17
56 10 0 9 -8 27 -18 40 -15 20 -20 21 -36 9z"/>
<path d="M1208 1927 c-3 -23 -3 -44 -2 -46 6 -7 63 53 58 61 -3 5 -12 4 -20
-3 -11 -9 -14 -8 -14 4 0 36 -18 23 -22 -16z"/>
<path d="M924 1934 c-18 -14 -18 -15 4 -4 12 6 22 13 22 15 0 8 -5 6 -26 -11z"/>
<path d="M1320 1937 c0 -2 26 -21 58 -42 31 -21 95 -74 142 -119 l85 -81 -70
74 c-69 72 -215 186 -215 168z"/>
<path d="M946 1917 c-17 -13 -17 -15 -2 -45 18 -36 41 -44 31 -11 -6 18 -5 19
14 8 28 -18 34 -8 15 29 -17 35 -30 39 -58 19z m34 -11 c0 -3 -4 -8 -10 -11
-5 -3 -10 -1 -10 4 0 6 5 11 10 11 6 0 10 -2 10 -4z"/>
<path d="M838 1879 c-69 -54 -151 -133 -190 -184 -17 -22 -1 -8 35 32 37 39
98 95 135 124 82 65 88 69 80 69 -3 0 -30 -19 -60 -41z"/>
<path d="M877 1876 c-17 -13 -17 -16 -2 -45 17 -34 30 -38 58 -17 25 19 21 27
-10 20 -27 -6 -28 -6 -8 11 20 16 20 16 -3 11 -23 -4 -23 -4 -6 15 13 15 14
19 3 19 -8 0 -22 -7 -32 -14z"/>
<path d="M1100 1880 c-8 -5 -10 -10 -5 -10 6 0 17 5 25 10 8 5 11 10 5 10 -5
0 -17 -5 -25 -10z"/>
<path d="M1150 1870 c8 -5 20 -10 25 -10 6 0 3 5 -5 10 -8 5 -19 10 -25 10 -5
0 -3 -5 5 -10z"/>
<path d="M1322 1868 c-25 -25 -6 -68 30 -68 26 0 45 44 28 65 -15 18 -41 20
-58 3z m38 -28 c0 -11 -7 -20 -15 -20 -15 0 -21 21 -8 33 12 13 23 7 23 -13z"/>
<path d="M1035 1850 c-3 -6 1 -7 9 -4 18 7 21 14 7 14 -6 0 -13 -4 -16 -10z"/>
<path d="M837 1844 c-4 -4 -4 -19 0 -33 6 -26 6 -26 -15 -8 -12 11 -23 14 -26
8 -7 -11 43 -53 58 -48 12 4 10 52 -3 74 -4 8 -10 11 -14 7z"/>
<path d="M968 1814 c-52 -34 -48 -40 5 -8 50 32 53 34 41 33 -5 0 -26 -11 -46
-25z"/>
<path d="M1391 1809 c-23 -31 -20 -59 4 -39 8 7 19 9 26 5 8 -5 9 -1 4 16 -7
21 -6 22 8 11 8 -7 17 -9 20 -5 3 4 -5 16 -18 25 -21 16 -23 16 -44 -13z"/>
<path d="M1250 1826 c0 -3 9 -10 20 -16 11 -6 20 -8 20 -6 0 3 -9 10 -20 16
-11 6 -20 8 -20 6z"/>
<path d="M1325 1778 c70 -52 170 -158 217 -228 55 -83 67 -98 48 -60 -44 87
-209 270 -272 300 -16 8 -14 4 7 -12z"/>
<path d="M760 1777 c0 -17 44 -59 53 -51 8 8 -31 64 -44 64 -5 0 -9 -6 -9 -13z"/>
<path d="M858 1735 c-53 -46 -140 -143 -160 -180 -14 -26 -10 -21 50 53 28 35
77 86 109 114 32 28 60 52 62 54 2 2 2 4 -2 4 -3 0 -29 -20 -59 -45z"/>
<path d="M1496 1763 c-3 -3 -1 -12 5 -20 9 -10 5 -13 -20 -13 -43 0 -40 -20
12 -66 23 -21 42 -42 42 -46 0 -18 19 -7 35 20 25 40 9 56 -35 37 -31 -12 -33
-12 -43 10 -10 22 -9 24 23 27 l33 3 -23 27 c-12 15 -26 24 -29 21z m64 -107
c0 -3 -4 -8 -10 -11 -5 -3 -10 -1 -10 4 0 6 5 11 10 11 6 0 10 -2 10 -4z"/>
<path d="M733 1740 c4 -16 0 -20 -19 -20 -32 0 -30 -10 7 -46 l32 -29 -7 28
c-5 20 -3 27 4 22 6 -4 18 -4 26 -1 12 5 11 11 -7 36 -26 34 -44 39 -36 10z"/>
<path d="M1000 1719 c-68 -44 -169 -136 -203 -184 -11 -16 10 3 47 42 37 40
102 96 144 124 82 54 88 59 80 59 -3 0 -33 -18 -68 -41z"/>
<path d="M1200 1746 c0 -3 9 -10 20 -16 11 -6 20 -8 20 -6 0 3 -9 10 -20 16
-11 6 -20 8 -20 6z"/>
<path d="M1280 1694 c109 -88 169 -156 233 -269 16 -27 26 -41 22 -30 -24 76
-197 281 -265 314 -18 9 -15 4 10 -15z"/>
<path d="M1060 1662 c-129 -79 -214 -175 -274 -310 -29 -67 -61 -226 -43 -215
7 4 8 0 4 -11 -6 -14 -3 -17 10 -12 17 6 17 5 0 -8 -10 -8 -16 -24 -15 -40 l2
-26 165 0 c90 0 162 -3 158 -6 -3 -3 -75 -5 -161 -5 l-155 2 5 -38 c3 -21 5
-46 5 -56 0 -9 4 -15 9 -12 4 3 11 -2 14 -11 3 -8 2 -12 -4 -9 -6 3 -10 -1
-10 -10 0 -10 5 -13 12 -9 7 5 9 0 6 -14 -4 -14 -2 -19 8 -15 9 3 12 -2 9 -15
-4 -23 27 -65 41 -54 4 4 3 0 -3 -9 -10 -12 -8 -18 7 -29 10 -7 17 -17 15 -20
-7 -11 25 -50 41 -50 8 0 14 -5 14 -11 0 -5 6 -7 13 -3 7 5 6 0 -3 -11 -9 -11
-10 -16 -2 -11 7 4 12 2 12 -4 0 -7 7 -9 16 -6 8 3 13 2 9 -3 -7 -13 66 -71
85 -68 8 1 14 -3 13 -10 -2 -7 11 -22 28 -33 35 -26 54 -21 147 40 144 94 246
247 274 408 10 60 10 75 -1 81 -10 7 -10 12 0 29 10 16 10 23 0 35 -9 12 -9
16 1 19 20 7 -16 151 -63 244 -47 96 -132 194 -223 258 -101 71 -95 70 -166
28z m60 8 c0 -5 -5 -10 -11 -10 -5 0 -7 5 -4 10 3 6 8 10 11 10 2 0 4 -4 4
-10z m-12 -53 c8 -9 7 -16 -6 -23 -14 -9 -17 -7 -18 12 -2 27 8 31 24 11z m52
-13 c0 -22 -2 -25 -15 -14 -12 10 -13 16 -4 26 16 20 19 18 19 -12z m-40 -27
c0 -8 -7 -14 -15 -14 -11 0 -12 4 -4 14 6 7 13 13 15 13 2 0 4 -6 4 -13z m-10
-63 c13 -32 13 -44 0 -44 -5 0 -7 7 -4 15 4 10 2 13 -7 10 -10 -4 -14 3 -14
20 0 32 13 32 25 -1z m50 0 c0 -22 -2 -25 -15 -14 -12 10 -13 16 -4 26 16 20
19 18 19 -12z m-60 -109 c-13 -12 -15 -11 -15 15 0 26 2 28 15 15 13 -13 13
-17 0 -30z m60 14 c0 -28 -1 -29 -16 -14 -13 12 -14 19 -4 30 17 21 20 19 20
-16z m-40 -29 c0 -5 -5 -10 -11 -10 -5 0 -7 5 -4 10 3 6 8 10 11 10 2 0 4 -4
4 -10z m186 -22 l17 -33 14 33 c8 20 20 32 32 32 19 0 19 -1 -2 -52 l-21 -51
27 -49 c32 -57 32 -58 7 -58 -12 0 -26 12 -36 32 l-17 32 -19 -37 c-10 -20
-25 -37 -33 -37 -20 0 -19 12 6 70 l20 48 -25 51 c-25 49 -26 51 -6 51 12 0
26 -12 36 -32z m-293 -44 l48 -59 -34 -3 c-25 -2 -37 -10 -46 -29 -9 -20 -16
-24 -37 -19 -19 5 -35 -1 -65 -24 l-39 -32 -11 29 c-6 15 -16 47 -22 70 -11
41 -10 44 18 73 18 18 38 30 50 28 11 -1 31 5 45 15 14 9 29 16 35 14 5 -2 32
-30 58 -63z m97 1 c0 -7 -6 -15 -13 -18 -10 -4 -13 2 -9 19 4 24 22 24 22 -1z
m50 -1 c0 -22 -2 -25 -15 -14 -12 10 -13 16 -4 26 16 20 19 18 19 -12z m-40
-34 c0 -5 -7 -10 -16 -10 -8 0 -12 5 -9 10 3 6 10 10 16 10 5 0 9 -4 9 -10z
m-11 -44 c9 -10 9 -16 1 -21 -8 -5 -7 -11 2 -22 10 -13 9 -15 -6 -12 -14 3
-19 13 -20 37 -1 35 5 40 23 18z m51 -12 c0 -22 -2 -25 -15 -14 -12 10 -13 16
-4 26 16 20 19 18 19 -12z m-57 -107 c-10 -12 -18 -23 -19 -25 0 -1 -9 7 -19
18 -17 18 -17 20 -2 14 13 -5 17 -1 17 15 0 19 3 20 21 11 20 -11 20 -12 2
-33z m84 10 c17 6 17 5 0 -14 -18 -21 -19 -21 -38 -2 -16 16 -17 22 -7 33 11
12 14 11 20 -5 5 -13 13 -17 25 -12z m-332 -25 c-9 -9 -42 -8 -54 2 -11 9 -9
12 10 16 21 5 53 -9 44 -18z m64 6 c-12 -22 -12 -22 -33 1 -16 17 -15 18 13
17 24 -1 27 -4 20 -18z m87 0 c-6 -10 -13 -18 -16 -18 -3 0 -10 8 -16 18 -10
15 -7 17 16 17 23 0 26 -2 16 -17z m263 -4 c-9 -11 -15 -11 -25 -3 -21 18 -17
27 11 21 20 -3 23 -7 14 -18z m100 17 c2 0 -2 -8 -9 -16 -10 -12 -16 -13 -26
-4 -21 17 -17 27 9 24 12 -1 24 -3 26 -4z m81 -16 c-10 -12 -16 -13 -26 -4
-20 16 -18 19 12 19 22 0 25 -2 14 -15z m-420 -5 c0 -5 -5 -10 -11 -10 -5 0
-7 5 -4 10 3 6 8 10 11 10 2 0 4 -4 4 -10z m180 0 c0 -5 -5 -10 -11 -10 -5 0
-7 5 -4 10 3 6 8 10 11 10 2 0 4 -4 4 -10z m-105 -40 c18 -19 18 -22 2 -37
-16 -16 -17 -16 -17 0 0 12 -8 17 -27 17 -25 0 -26 0 -8 20 23 25 27 25 50 0z
m258 0 c16 -19 16 -20 -13 -20 -28 0 -29 2 -18 20 7 11 13 20 13 20 0 0 8 -9
18 -20z m92 0 c18 -20 17 -20 -14 -20 -29 0 -31 2 -21 20 6 11 12 20 14 20 2
0 11 -9 21 -20z m-625 -5 c11 -13 8 -15 -20 -15 -28 0 -31 2 -20 15 7 8 16 15
20 15 4 0 13 -7 20 -15z m90 0 c11 -13 8 -15 -20 -15 -28 0 -31 2 -20 15 7 8
16 15 20 15 4 0 13 -7 20 -15z m90 0 c11 -13 8 -15 -20 -15 -28 0 -31 2 -20
15 7 8 16 15 20 15 4 0 13 -7 20 -15z m180 0 c10 -13 9 -15 -9 -15 -13 0 -21
-6 -21 -16 0 -14 -3 -14 -15 -4 -14 12 -14 15 1 31 21 23 28 24 44 4z m90 0
c11 -13 8 -15 -20 -15 -28 0 -31 2 -20 15 7 8 16 15 20 15 4 0 13 -7 20 -15z
m-160 -50 c0 -8 -7 -15 -16 -15 -14 0 -14 3 -4 15 7 8 14 15 16 15 2 0 4 -7 4
-15z m-131 -36 c6 -18 11 -45 11 -60 0 -16 9 -38 20 -49 26 -26 25 -55 0 -80
-12 -12 -18 -26 -14 -33 4 -7 3 -8 -2 -4 -5 5 -13 -7 -20 -25 -13 -39 -54 -54
-54 -19 0 11 -4 23 -10 26 -6 4 -7 -1 -3 -11 4 -10 2 -15 -4 -11 -5 3 -10 28
-11 54 -2 61 -11 101 -28 136 -9 16 -10 27 -4 27 20 0 25 -5 22 -23 -2 -9 0
-17 5 -16 4 1 25 1 46 0 26 -1 37 -6 37 -16 0 -8 4 -15 9 -15 5 0 7 9 4 19 -4
15 -15 21 -47 23 -39 3 -41 4 -38 32 7 54 20 76 46 76 18 0 27 -8 35 -31z
m120 -13 c8 -10 8 -16 -3 -25 -11 -9 -15 -6 -18 14 -6 28 3 32 21 11z m51 -12
c0 -22 -2 -25 -15 -14 -12 10 -13 16 -4 26 16 20 19 18 19 -12z m204 13 c27
-20 31 -98 9 -177 l-18 -65 -45 0 -44 0 -18 70 c-20 78 -16 152 10 173 21 16
83 15 106 -1z m-244 -47 c0 -5 -5 -10 -11 -10 -5 0 -7 5 -4 10 3 6 8 10 11 10
2 0 4 -4 4 -10z m-52 -40 c-1 -23 -4 -36 -8 -30 -4 6 -5 21 -4 33 1 12 3 25 3
30 1 4 3 7 6 7 3 0 4 -18 3 -40z m30 -36 c-14 -14 -15 -14 -10 11 3 19 8 23
15 16 8 -8 7 -16 -5 -27z m62 10 c0 -22 -2 -25 -15 -14 -12 10 -13 16 -4 26
16 20 19 18 19 -12z m-333 -26 c-3 -8 -6 -5 -6 6 -1 11 2 17 5 13 3 -3 4 -12
1 -19z m293 -3 c0 -8 -7 -15 -16 -15 -14 0 -14 3 -4 15 7 8 14 15 16 15 2 0 4
-7 4 -15z m-47 -12 c-7 -3 -9 -12 -6 -21 4 -14 3 -14 -5 -3 -12 17 -4 43 11
34 8 -5 8 -8 0 -10z m36 -37 c9 -10 8 -16 -4 -26 -13 -11 -15 -8 -15 14 0 30
3 32 19 12z m51 -12 c0 -22 -2 -25 -15 -14 -12 10 -13 16 -4 26 16 20 19 18
19 -12z m-40 -29 c0 -8 -7 -15 -16 -15 -14 0 -14 3 -4 15 7 8 14 15 16 15 2 0
4 -7 4 -15z m-53 -32 c-3 -10 -5 -4 -5 12 0 17 2 24 5 18 2 -7 2 -21 0 -30z
m51 -29 c1 -1 -4 -6 -12 -13 -11 -9 -15 -7 -18 14 -5 22 -3 24 11 13 9 -7 17
-13 19 -14z m42 0 c0 -22 -2 -25 -15 -14 -12 10 -13 16 -4 26 16 20 19 18 19
-12z m-94 -40 c0 -19 -2 -31 -5 -28 -3 3 -6 21 -6 39 0 44 10 34 11 -11z m54
6 c0 -5 -5 -10 -11 -10 -5 0 -7 5 -4 10 3 6 8 10 11 10 2 0 4 -4 4 -10z m-2
-64 c-2 -1 -10 -7 -19 -14 -14 -11 -16 -9 -11 13 3 21 7 23 18 14 8 -7 13 -12
12 -13z m42 -2 c0 -22 -2 -25 -15 -14 -12 10 -13 16 -4 26 16 20 19 18 19 -12z
m-40 -27 c0 -8 -7 -14 -15 -14 -11 0 -12 4 -4 14 6 7 13 13 15 13 2 0 4 -6 4
-13z"/>
<path d="M944 991 c4 -6 2 -11 -3 -11 -6 0 -11 -5 -11 -11 0 -5 5 -7 10 -4 6
3 10 1 10 -4 0 -6 5 -11 11 -11 15 0 7 43 -10 48 -8 3 -11 0 -7 -7z"/>
<path d="M920 921 c0 -5 11 -8 25 -8 14 0 25 3 25 8 0 5 -11 9 -25 9 -14 0
-25 -4 -25 -9z"/>
<path d="M932 850 c0 -14 2 -19 5 -12 2 6 2 18 0 25 -3 6 -5 1 -5 -13z"/>
<path d="M912 790 c0 -14 2 -19 5 -12 2 6 2 18 0 25 -3 6 -5 1 -5 -13z"/>
<path d="M952 780 c0 -14 2 -19 5 -12 2 6 2 18 0 25 -3 6 -5 1 -5 -13z"/>
<path d="M932 738 c7 -15 15 -23 17 -17 2 6 -4 18 -13 27 -15 15 -15 15 -4
-10z"/>
<path d="M1269 911 c4 -33 5 -34 11 -11 7 26 13 19 23 -25 3 -12 5 -6 6 15 2
31 3 33 11 13 5 -13 14 -23 20 -23 15 0 12 -30 -2 -31 -39 -5 -54 -2 -65 11
-11 13 -12 13 -13 0 0 -9 10 -24 22 -34 18 -16 19 -20 5 -27 -27 -15 -3 -68
31 -69 17 0 36 50 23 63 -7 7 -6 17 2 31 6 12 12 44 13 72 l0 51 -28 -11 c-20
-8 -33 -7 -46 0 -16 10 -17 8 -13 -25z m48 -133 c-3 -7 -5 -2 -5 12 0 14 2 19
5 13 2 -7 2 -19 0 -25z"/>
<path d="M666 1683 c-3 -4 4 -17 16 -30 27 -29 18 -40 -15 -18 -35 23 -44 1
-9 -23 33 -24 62 -14 62 22 0 24 -42 61 -54 49z"/>
<path d="M1620 1660 c12 -16 24 -30 26 -30 3 0 -4 14 -16 30 -12 17 -24 30
-26 30 -3 0 4 -13 16 -30z"/>
<path d="M592 1623 c-26 -38 -34 -53 -29 -53 2 0 16 18 31 40 29 45 28 56 -2
13z"/>
<path d="M1575 1604 c-28 -24 -29 -25 -6 -20 18 4 21 2 12 -7 -18 -18 -13 -30
10 -24 17 5 18 3 8 -9 -20 -25 -2 -27 30 -3 23 17 28 26 20 36 -9 10 -16 10
-33 1 -20 -10 -20 -10 -5 8 15 18 16 44 1 44 -4 0 -20 -12 -37 -26z"/>
<path d="M1660 1600 c6 -11 13 -20 16 -20 2 0 0 9 -6 20 -6 11 -13 20 -16 20
-2 0 0 -9 6 -20z"/>
<path d="M581 1544 c-14 -32 -15 -29 18 -53 l29 -21 17 26 c19 30 13 43 -11
23 -15 -12 -16 -11 -10 9 9 26 -1 29 -21 5 -13 -16 -13 -16 -4 4 6 12 7 24 2
27 -4 3 -13 -6 -20 -20z"/>
<path d="M1707 1515 c9 -19 18 -33 21 -31 4 5 -26 66 -33 66 -3 0 3 -16 12
-35z"/>
<path d="M1629 1522 c-25 -17 -26 -19 -13 -45 17 -32 28 -34 56 -7 18 17 20
23 10 45 -13 29 -18 30 -53 7z m16 -32 c3 -5 1 -10 -4 -10 -6 0 -11 5 -11 10
0 6 2 10 4 10 3 0 8 -4 11 -10z"/>
<path d="M670 1510 c-6 -11 -8 -20 -6 -20 3 0 10 9 16 20 6 11 8 20 6 20 -3 0
-10 -9 -16 -20z"/>
<path d="M525 1509 c-4 -6 -5 -12 -2 -15 2 -3 7 2 10 11 7 17 1 20 -8 4z"/>
<path d="M545 1480 c-3 -5 -1 -10 4 -10 6 0 11 -7 11 -16 0 -10 -6 -14 -15
-11 -29 12 -24 -12 7 -32 23 -14 36 -17 43 -9 7 7 6 12 -2 15 -23 8 -15 35 7
28 31 -10 24 13 -10 30 -34 18 -37 18 -45 5z"/>
<path d="M735 1439 c-9 -17 -15 -33 -13 -35 3 -2 12 12 21 31 21 43 13 47 -8
4z"/>
<path d="M1675 1452 c-17 -9 -32 -18 -34 -20 -3 -1 0 -6 5 -11 13 -13 75 21
66 36 -5 8 -15 7 -37 -5z"/>
<path d="M1736 1450 c3 -14 11 -32 16 -40 6 -10 7 -7 2 10 -3 14 -11 32 -16
40 -6 10 -7 7 -2 -10z"/>
<path d="M1611 1435 c0 -5 6 -21 14 -35 8 -14 14 -20 14 -15 0 6 -6 21 -14 35
-8 14 -14 21 -14 15z"/>
<path d="M606 1380 c-22 -56 -19 -65 5 -11 11 24 18 46 15 48 -2 2 -11 -14
-20 -37z"/>
<path d="M501 1384 c-12 -27 -5 -56 9 -34 6 9 12 9 30 0 15 -8 25 -9 33 -1 7
7 2 14 -16 22 -15 7 -27 18 -27 26 0 22 -16 15 -29 -13z"/>
<path d="M1688 1403 c-26 -4 -41 -23 -18 -23 6 0 10 -11 10 -25 0 -32 7 -31
41 1 26 25 29 56 5 53 -6 -1 -23 -4 -38 -6z"/>
<path d="M1761 1380 c0 -8 4 -24 9 -35 5 -13 9 -14 9 -5 0 8 -4 24 -9 35 -5
13 -9 14 -9 5z"/>
<path d="M471 1354 c0 -11 3 -14 6 -6 3 7 2 16 -1 19 -3 4 -6 -2 -5 -13z"/>
<path d="M1640 1365 c0 -5 5 -17 10 -25 5 -8 10 -10 10 -5 0 6 -5 17 -10 25
-5 8 -10 11 -10 5z"/>
<path d="M462 1300 c0 -14 2 -19 5 -12 2 6 2 18 0 25 -3 6 -5 1 -5 -13z"/>
<path d="M1561 1310 c0 -8 4 -24 9 -35 5 -13 9 -14 9 -5 0 8 -4 24 -9 35 -5
13 -9 14 -9 5z"/>
<path d="M1782 1273 c-1 -23 -5 -50 -8 -60 -5 -17 -5 -17 6 0 6 9 9 36 7 60
l-4 42 -1 -42z"/>
<path d="M561 1243 c-14 -57 -20 -61 -66 -37 -29 15 -29 14 -12 -3 13 -14 33
-18 82 -18 35 0 67 4 72 9 4 4 -6 20 -24 36 -17 15 -33 36 -35 47 -2 10 -10
-4 -17 -34z"/>
<path d="M672 1260 c0 -14 2 -19 5 -12 2 6 2 18 0 25 -3 6 -5 1 -5 -13z"/>
<path d="M461 1244 c0 -11 3 -14 6 -6 3 7 2 16 -1 19 -3 4 -6 -2 -5 -13z"/>
<path d="M1650 1231 c-29 -25 -33 -32 -20 -41 19 -13 100 -13 120 0 11 7 6 8
-16 4 -30 -6 -32 -4 -40 30 l-9 37 -35 -30z"/>
<path d="M1582 1220 c0 -14 2 -19 5 -12 2 6 2 18 0 25 -3 6 -5 1 -5 -13z"/>
<path d="M663 1180 c0 -25 2 -35 4 -22 2 12 2 32 0 45 -2 12 -4 2 -4 -23z"/>
<path d="M1593 1150 c0 -25 2 -35 4 -22 2 12 2 32 0 45 -2 12 -4 2 -4 -23z"/>
<path d="M579 1073 c-13 -16 -12 -17 4 -4 9 7 17 15 17 17 0 8 -8 3 -21 -13z"/>
<path d="M1655 1070 c-3 -6 1 -7 9 -4 18 7 21 14 7 14 -6 0 -13 -4 -16 -10z"/>
<path d="M663 1025 c0 -27 2 -38 4 -22 2 15 2 37 0 50 -2 12 -4 0 -4 -28z"/>
<path d="M1592 1000 c0 -19 2 -27 5 -17 2 9 2 25 0 35 -3 9 -5 1 -5 -18z"/>
<path d="M672 950 c0 -14 2 -19 5 -12 2 6 2 18 0 25 -3 6 -5 1 -5 -13z"/>
<path d="M1582 930 c0 -14 2 -19 5 -12 2 6 2 18 0 25 -3 6 -5 1 -5 -13z"/>
<path d="M681 904 c0 -11 3 -14 6 -6 3 7 2 16 -1 19 -3 4 -6 -2 -5 -13z"/>
<path d="M700 845 c0 -5 5 -17 10 -25 5 -8 10 -10 10 -5 0 6 -5 17 -10 25 -5
8 -10 11 -10 5z"/>
<path d="M1521 763 c-10 -26 -10 -27 4 -9 8 11 15 23 15 28 0 15 -7 8 -19 -19z"/>
<path d="M730 773 c0 -20 99 -149 153 -200 30 -29 83 -70 118 -92 35 -22 70
-46 77 -52 7 -6 18 -9 25 -6 7 2 -8 14 -33 27 -119 60 -226 157 -300 271 -22
34 -40 58 -40 52z"/>
<path d="M1476 691 c-28 -40 -128 -139 -181 -179 -25 -19 -26 -21 -5 -11 30
14 192 175 209 207 18 34 7 26 -23 -17z"/>
<path d="M595 571 c-60 -27 -132 -117 -111 -138 3 -4 6 2 6 13 0 11 8 1 20
-23 18 -42 69 -83 100 -83 8 0 -3 9 -25 19 -45 20 -75 64 -75 108 0 51 87 113
159 113 29 0 30 -2 34 -52 l3 -53 2 58 2 57 -37 0 c-21 0 -56 -9 -78 -19z"/>
<path d="M1525 585 c25 -9 107 -12 94 -4 -8 5 -34 8 -59 8 -25 0 -40 -2 -35
-4z"/>
<path d="M1678 540 c46 -35 56 -57 47 -100 -6 -29 -25 -52 -25 -30 0 17 -91
70 -119 69 -24 -1 -23 -2 5 -9 67 -15 124 -65 107 -92 -3 -6 -1 -8 4 -5 6 4
20 27 32 52 l22 46 -21 29 c-21 29 -71 70 -86 70 -4 0 11 -14 34 -30z"/>
<path d="M1234 474 c-18 -14 -18 -15 4 -4 12 6 22 13 22 15 0 8 -5 6 -26 -11z"/>
<path d="M603 464 c-17 -9 -40 -25 -50 -37 -14 -16 -10 -15 17 5 19 15 51 31
70 36 20 6 26 10 15 11 -11 0 -34 -7 -52 -15z"/>
<path d="M1140 424 l-25 -15 25 7 c28 7 35 12 29 18 -2 2 -15 -2 -29 -10z"/>
<path d="M473 370 c0 -30 2 -43 4 -27 2 15 2 39 0 55 -2 15 -4 2 -4 -28z"/>
<path d="M1198 413 c7 -3 16 -2 19 1 4 3 -2 6 -13 5 -11 0 -14 -3 -6 -6z"/>
<path d="M1761 404 c0 -11 3 -14 6 -6 3 7 2 16 -1 19 -3 4 -6 -2 -5 -13z"/>
<path d="M998 403 c7 -3 16 -2 19 1 4 3 -2 6 -13 5 -11 0 -14 -3 -6 -6z"/>
<path d="M1248 403 c7 -3 16 -2 19 1 4 3 -2 6 -13 5 -11 0 -14 -3 -6 -6z"/>
<path d="M958 393 c7 -3 16 -2 19 1 4 3 -2 6 -13 5 -11 0 -14 -3 -6 -6z"/>
<path d="M1061 390 c-17 -10 -6 -60 12 -60 17 0 37 20 37 37 0 17 -33 33 -49
23z m29 -25 c0 -8 -4 -15 -8 -15 -5 0 -9 7 -9 15 0 8 4 15 9 15 4 0 8 -7 8
-15z"/>
<path d="M1140 371 c0 -31 14 -39 63 -37 15 1 27 -2 27 -6 0 -4 5 -8 11 -8 6
0 8 7 5 16 -4 9 -1 24 6 32 11 13 10 15 -4 9 -10 -3 -20 -2 -23 3 -11 17 -23
11 -18 -9 6 -23 -6 -31 -32 -20 l-20 8 20 0 c17 1 17 3 5 11 -10 6 -11 10 -2
10 6 0 12 5 12 10 0 6 -11 10 -25 10 -21 0 -25 -5 -25 -29z"/>
<path d="M1288 393 c6 -2 18 -2 25 0 6 3 1 5 -13 5 -14 0 -19 -2 -12 -5z"/>
<path d="M918 383 c7 -3 16 -2 19 1 4 3 -2 6 -13 5 -11 0 -14 -3 -6 -6z"/>
<path d="M1020 374 c0 -14 -3 -14 -15 -4 -20 17 -24 11 -18 -22 5 -27 23 -40
23 -17 0 8 4 8 14 0 18 -15 26 -3 19 32 -6 29 -23 38 -23 11z"/>
<path d="M1345 380 c11 -5 27 -9 35 -9 9 0 8 4 -5 9 -11 5 -27 9 -35 9 -9 0
-8 -4 5 -9z"/>
<path d="M848 363 c7 -3 16 -2 19 1 4 3 -2 6 -13 5 -11 0 -14 -3 -6 -6z"/>
<path d="M937 363 c-4 -3 -7 -20 -7 -36 0 -25 2 -27 15 -17 8 6 19 9 25 5 14
-9 12 17 -4 38 -14 19 -19 20 -29 10z"/>
<path d="M1264 356 c-3 -9 -4 -23 0 -31 6 -17 46 -21 46 -4 0 6 -7 9 -15 5 -9
-3 -15 0 -15 10 0 8 6 14 14 12 8 -2 16 2 18 7 5 17 -42 18 -48 1z"/>
<path d="M1408 363 c6 -2 18 -2 25 0 6 3 1 5 -13 5 -14 0 -19 -2 -12 -5z"/>
<path d="M1660 360 c-9 -6 -10 -10 -3 -10 6 0 15 5 18 10 8 12 4 12 -15 0z"/>
<path d="M798 353 c6 -2 18 -2 25 0 6 3 1 5 -13 5 -14 0 -19 -2 -12 -5z"/>
<path d="M1326 344 c-12 -32 -5 -43 32 -53 51 -15 69 -14 54 1 -7 7 -12 19
-12 28 0 9 -11 22 -25 28 -34 16 -42 15 -49 -4z m54 -24 c0 -22 -7 -25 -30
-10 -12 8 -12 10 5 10 17 0 17 2 5 10 -13 8 -12 10 3 10 10 0 17 -8 17 -20z"/>
<path d="M1458 353 c6 -2 18 -2 25 0 6 3 1 5 -13 5 -14 0 -19 -2 -12 -5z"/>
<path d="M743 343 c9 -2 23 -2 30 0 6 3 -1 5 -18 5 -16 0 -22 -2 -12 -5z"/>
<path d="M846 341 c-3 -5 -15 -7 -25 -4 -10 3 -22 0 -25 -6 -4 -6 -18 -11 -32
-11 -18 0 -24 -5 -24 -22 -1 -22 -1 -22 -15 -4 -20 26 -29 15 -14 -18 15 -31
31 -29 39 5 l6 24 6 -22 c6 -22 28 -33 28 -13 0 5 7 7 15 4 8 -3 20 -2 27 2
13 9 18 10 51 12 10 1 16 6 12 12 -3 5 -13 6 -23 3 -14 -5 -13 -2 3 11 19 16
19 17 1 12 -16 -6 -17 -4 -6 9 10 12 10 15 -3 15 -9 0 -18 -4 -21 -9z m-8 -33
c-3 -7 -11 -13 -18 -13 -7 0 -15 6 -17 13 -3 7 4 12 17 12 13 0 20 -5 18 -12z"/>
<path d="M1523 343 c9 -2 23 -2 30 0 6 3 -1 5 -18 5 -16 0 -22 -2 -12 -5z"/>
<path d="M1608 343 c6 -2 18 -2 25 0 6 3 1 5 -13 5 -14 0 -19 -2 -12 -5z"/>
<path d="M530 319 c-13 -23 2 -49 27 -49 11 0 14 7 11 25 -3 13 -1 22 3 19 5
-3 9 -1 9 4 0 8 -22 22 -35 22 -3 0 -9 -9 -15 -21z"/>
<path d="M648 333 c12 -2 32 -2 45 0 12 2 2 4 -23 4 -25 0 -35 -2 -22 -4z"/>
<path d="M1668 333 c-10 -2 -18 -8 -18 -11 0 -4 -15 -8 -32 -9 -18 -2 -34 -7
-36 -13 -3 -7 -11 -5 -23 6 -18 16 -19 16 -19 -21 0 -31 2 -35 14 -26 10 8 16
9 21 1 9 -14 27 -2 18 13 -3 7 3 4 15 -7 19 -16 24 -17 38 -5 9 8 22 14 28 15
6 0 17 2 25 2 8 1 11 8 6 20 -4 9 -8 23 -8 30 0 6 -3 11 -6 11 -3 -1 -14 -3
-23 -6z m-8 -42 c0 -5 -7 -12 -16 -15 -22 -9 -24 -8 -24 9 0 8 9 15 20 15 11
0 20 -4 20 -9z"/>
<path d="M1437 323 c-4 -3 -7 -17 -7 -30 0 -17 6 -23 23 -23 16 0 19 3 8 9 -8
5 -12 18 -8 30 5 21 -3 28 -16 14z"/>
<path d="M585 297 c-8 -32 0 -47 26 -47 24 0 25 17 2 23 -15 4 -15 5 2 6 17 1
18 3 5 11 -13 8 -12 10 3 10 12 0 17 -8 17 -25 0 -14 5 -25 10 -25 6 0 10 5
10 12 0 9 3 9 12 0 19 -19 25 -14 20 18 -3 25 -9 30 -31 30 -14 0 -36 3 -48 6
-18 5 -23 1 -28 -19z"/>
<path d="M1030 310 c-20 -6 -21 -8 -5 -8 11 0 31 4 45 8 20 6 21 8 5 8 -11 0
-31 -4 -45 -8z"/>
<path d="M1178 313 c6 -2 18 -2 25 0 6 3 1 5 -13 5 -14 0 -19 -2 -12 -5z"/>
<path d="M1487 313 c-4 -3 -7 -17 -7 -30 0 -19 5 -23 28 -22 24 0 25 1 7 9
-17 7 -17 9 -2 9 24 1 23 41 -1 41 -10 0 -22 -3 -25 -7z"/>
<path d="M1240 300 c34 -11 60 -11 35 0 -11 5 -29 8 -40 8 -16 0 -15 -2 5 -8z"/>
<path d="M978 293 c7 -3 16 -2 19 1 4 3 -2 6 -13 5 -11 0 -14 -3 -6 -6z"/>
<path d="M490 286 c0 -2 8 -10 18 -17 15 -13 16 -12 3 4 -13 16 -21 21 -21 13z"/>
<path d="M895 275 c-39 -14 -40 -14 -5 -8 41 7 82 22 60 22 -8 0 -33 -7 -55
-14z"/>
<path d="M1348 273 c7 -3 16 -2 19 1 4 3 -2 6 -13 5 -11 0 -14 -3 -6 -6z"/>
<path d="M1388 263 c7 -3 16 -2 19 1 4 3 -2 6 -13 5 -11 0 -14 -3 -6 -6z"/>
<path d="M1695 258 c-11 -7 -56 -15 -100 -19 l-80 -6 68 -1 c61 -2 137 17 137
32 0 8 -2 7 -25 -6z"/>
<path d="M537 249 c7 -7 15 -10 18 -7 3 3 -2 9 -12 12 -14 6 -15 5 -6 -5z"/>
<path d="M818 253 c7 -3 16 -2 19 1 4 3 -2 6 -13 5 -11 0 -14 -3 -6 -6z"/>
<path d="M778 243 c7 -3 16 -2 19 1 4 3 -2 6 -13 5 -11 0 -14 -3 -6 -6z"/>
<path d="M1478 243 c6 -2 18 -2 25 0 6 3 1 5 -13 5 -14 0 -19 -2 -12 -5z"/>
<path d="M578 233 c7 -3 16 -2 19 1 4 3 -2 6 -13 5 -11 0 -14 -3 -6 -6z"/>
<path d="M723 233 c9 -2 23 -2 30 0 6 3 -1 5 -18 5 -16 0 -22 -2 -12 -5z"/>
<path d="M638 223 c12 -2 30 -2 40 0 9 3 -1 5 -23 4 -22 0 -30 -2 -17 -4z"/>
</g>
</svg>
